<?xml version="1.0" encoding="UTF-8"?>
<svg version="1.1" xmlns="http://www.w3.org/2000/svg" width="875" height="374">
<path d="M0 0 C87.45 0 174.9 0 265 0 C265.495 104.445 265.495 104.445 266 211 C267.485 206.05 267.485 206.05 269 201 C276.6417869 183.8204892 288.65662068 170.53539929 306 163 C316.01532075 159.69283319 325.50608703 159.05826614 335.8359375 161.01953125 C337.29459229 161.29373901 337.29459229 161.29373901 338.78271484 161.57348633 C339.51441895 161.71423584 340.24612305 161.85498535 341 162 C341.01981934 160.81035645 341.03963867 159.62071289 341.06005859 158.39501953 C341.13668608 153.94055611 341.22531087 149.48639529 341.31738281 145.03222656 C341.35543823 143.11204037 341.39032996 141.19178856 341.421875 139.27148438 C341.46803929 136.49585669 341.52594339 133.72067175 341.5859375 130.9453125 C341.59748871 130.1001004 341.60903992 129.25488831 341.62094116 128.38406372 C341.82384761 120.00936502 342.37246243 111.5922583 348 105 C353.66301075 100.89431721 358.89611933 100.84135229 365.7109375 100.83203125 C366.97957138 100.82703865 366.97957138 100.82703865 368.27383423 100.82194519 C370.06080584 100.81688934 371.84778687 100.81453645 373.63476562 100.81469727 C376.35823249 100.81251345 379.08129239 100.79435097 381.8046875 100.77539062 C383.54426945 100.77245583 385.28385332 100.77047161 387.0234375 100.76953125 C387.83299896 100.76234573 388.64256042 100.75516022 389.47665405 100.74775696 C396.15976241 100.77454903 401.56706509 101.81108307 406.68981075 106.50012016 C412.86179996 113.56569652 411.43025068 124.16226744 411.40405273 132.90576172 C411.4097607 134.62468915 411.41672661 136.3436128 411.42485046 138.06253052 C411.4427509 142.71552733 411.44161923 147.36833524 411.43590808 152.02135611 C411.43281139 155.9128527 411.4389141 159.80431326 411.44494683 163.69580472 C411.45898053 172.88040437 411.45744067 182.064911 411.44604492 191.24951172 C411.43456764 200.70854267 411.44863547 210.16728995 411.4754414 219.62628353 C411.49763086 227.76243514 411.50422838 235.89849792 411.49836498 244.03467762 C411.49500163 248.8874339 411.49736893 253.74000842 411.51461601 258.59273911 C411.53013464 263.15817642 411.52607529 267.72319511 411.50731087 272.28861618 C411.50363841 273.95825625 411.50669404 275.62792768 411.51719666 277.29753876 C411.61847155 294.73702025 411.61847155 294.73702025 407 302 C399.24289529 309.12500573 386.52767058 308.29353638 376.75 308.1875 C375.6053125 308.18685547 374.460625 308.18621094 373.28125 308.18554688 C368.04684274 308.15815753 363.16114697 307.91666195 358 307 C351.27218587 306.61884584 345.43767133 306.85410956 339 309 C321.16389362 312.49727576 306.13909489 308.33742866 290.87109375 299.3671875 C290.25363281 298.91601562 289.63617188 298.46484375 289 298 C289 297.34 289 296.68 289 296 C288.13375 295.6596875 288.13375 295.6596875 287.25 295.3125 C284.41626105 293.65948561 282.96855887 291.60357787 281 289 C280.13375 288.1646875 280.13375 288.1646875 279.25 287.3125 C278 286 278 286 278 284 C277.34 284 276.68 284 276 284 C274.70064536 281.48287811 273.41045628 278.96170913 272.125 276.4375 C271.57779297 275.38079102 271.57779297 275.38079102 271.01953125 274.30273438 C270.66503906 273.60341797 270.31054688 272.90410156 269.9453125 272.18359375 C269.62062988 271.54993896 269.29594727 270.91628418 268.96142578 270.26342773 C267.69403419 267.27968283 266.89058027 264.11703094 266 261 C265.67 269.58 265.34 278.16 265 287 C177.55 287 90.1 287 0 287 C0 192.29 0 97.58 0 0 Z M336 200 C328.37245419 221.83955424 330.07392286 251.20594392 337 273 C338.32 273 339.64 273 341 273 C342.11662035 269.65013896 342.13374705 267.11879547 342.14526367 263.58837891 C342.14862228 262.94248306 342.1519809 262.29658722 342.15544128 261.63111877 C342.16493868 259.4962471 342.16689384 257.36145398 342.16796875 255.2265625 C342.17118238 253.74067147 342.17454653 252.25478075 342.17805481 250.76889038 C342.18404319 247.65353665 342.18589503 244.53821065 342.18530273 241.42285156 C342.18520118 237.43594955 342.19884813 233.44922588 342.21607494 229.4623661 C342.22720835 226.39282417 342.22922152 223.32332516 342.22869301 220.25376511 C342.2298713 218.7841976 342.23428465 217.31462892 342.24202538 215.84508133 C342.25185164 213.7867316 342.24893697 211.72876642 342.24291992 209.67041016 C342.24505745 207.91526596 342.24505745 207.91526596 342.24723816 206.12466431 C342.00102509 203.01295534 341.3265815 200.80600321 340 198 C338.53774984 197.90754997 338.53774984 197.90754997 336 200 Z " fill="#CC1D1D" transform="translate(36,14)"/>
<path d="M0 0 C6.92881218 6.37502236 10.28445774 14.46029977 10.89453125 23.82421875 C10.96527042 33.50133782 9.36238124 40.74709273 4.7265625 49.24609375 C4.0665625 49.24609375 3.4065625 49.24609375 2.7265625 49.24609375 C2.47640377 52.66252134 2.47640377 52.66252134 2.7265625 56.24609375 C3.7165625 56.90609375 4.7065625 57.56609375 5.7265625 58.24609375 C6.2215625 56.76109375 6.2215625 56.76109375 6.7265625 55.24609375 C9.5 54.33203125 9.5 54.33203125 13.1015625 53.62109375 C14.37515625 53.36714844 15.64875 53.11320312 16.9609375 52.8515625 C20.13360409 52.34143457 23.14867551 52.06938867 26.3515625 51.93359375 C32.90666 51.43831972 38.31032248 48.89308433 43.7265625 45.24609375 C48.17861898 40.01492739 49.1062638 33.35151571 50.6015625 26.76953125 C51.77298019 23.10071612 53.08908168 21.01750914 55.7265625 18.24609375 C56.7165625 17.75109375 56.7165625 17.75109375 57.7265625 17.24609375 C58.2215625 15.76109375 58.2215625 15.76109375 58.7265625 14.24609375 C60.62322776 14.3338183 62.51895243 14.44200676 64.4140625 14.55859375 C65.46980469 14.61660156 66.52554688 14.67460937 67.61328125 14.734375 C71.79299293 15.42137905 74.53768052 16.96914644 77.4140625 20.05859375 C80.23087136 24.75327518 80.98608506 29.32938318 81.140625 34.73828125 C81.17929687 35.93710938 81.21796875 37.1359375 81.2578125 38.37109375 C81.30421875 40.22734375 81.30421875 40.22734375 81.3515625 42.12109375 C81.39023437 43.38179687 81.42890625 44.6425 81.46875 45.94140625 C81.56273239 49.04282512 81.64839661 52.14424261 81.7265625 55.24609375 C82.7165625 54.93671875 83.7065625 54.62734375 84.7265625 54.30859375 C93.22943267 51.92102586 101.76941633 52.06323132 110.5390625 52.05859375 C112.34987305 52.04022461 112.34987305 52.04022461 114.19726562 52.02148438 C134.49743624 51.98854738 134.49743624 51.98854738 141.7265625 57.24609375 C147.60961433 63.914471 151.08608423 71.90518573 154.67871094 79.94042969 C156.7746589 84.55229654 158.97841776 89.11374949 161.1640625 93.68359375 C162.03785978 95.51557761 162.91156588 97.34760496 163.78515625 99.1796875 C164.43220801 100.53519619 165.07930942 101.89068118 165.7265625 103.24609375 C169.02071551 101.81625904 169.02071551 101.81625904 171 98.84765625 C171.36351562 97.86539063 171.72703125 96.883125 172.1015625 95.87109375 C173.78839724 91.53499709 175.59770096 87.38372721 177.7265625 83.24609375 C179.80981462 79.18614972 181.617095 75.11652848 183.2890625 70.87109375 C185.21735749 66.13688234 187.16650147 62.8974384 190.7265625 59.24609375 C191.5309375 58.03953125 191.5309375 58.03953125 192.3515625 56.80859375 C196.43396033 54.12280571 201.08753574 55.41744317 205.7265625 56.24609375 C206.7165625 56.57609375 207.7065625 56.90609375 208.7265625 57.24609375 C208.7265625 57.90609375 208.7265625 58.56609375 208.7265625 59.24609375 C209.7165625 59.57609375 210.7065625 59.90609375 211.7265625 60.24609375 C213.4140625 63.80859375 213.4140625 63.80859375 214.7265625 67.24609375 C215.4278125 66.715 216.1290625 66.18390625 216.8515625 65.63671875 C227.6502884 57.59636305 236.76695858 54.23353491 249.7265625 51.24609375 C250.6700354 50.97913696 250.6700354 50.97913696 251.63256836 50.70678711 C272.67696131 46.07687344 296.73943695 52.30965406 314.9453125 63.04296875 C317.59202131 64.83065804 319.61316299 66.85461535 321.7265625 69.24609375 C322.33886719 69.91382813 322.95117188 70.5815625 323.58203125 71.26953125 C328.7265625 76.95829435 328.7265625 76.95829435 328.7265625 79.24609375 C329.3865625 79.24609375 330.0465625 79.24609375 330.7265625 79.24609375 C337.28196371 92.8751097 339.77186354 104.43019556 339.796875 119.47265625 C339.80689631 121.18099195 339.81732024 122.88932533 339.828125 124.59765625 C339.84484403 127.24221293 339.85143174 129.88478333 339.82617188 132.52929688 C339.26240297 144.21439117 339.26240297 144.21439117 344.21875 154.26953125 C344.84894043 154.80239746 345.47913086 155.33526367 346.12841797 155.88427734 C348.30375526 157.73793323 348.64854715 159.5605818 348.96484375 162.33984375 C349.29213024 172.95081614 345.72433448 181.07323427 338.8671875 189.0859375 C335.78540027 192.19584323 332.65664573 194.3469411 328.7265625 196.24609375 C327.82357422 196.70435547 327.82357422 196.70435547 326.90234375 197.171875 C317.2780363 201.42916823 305.69273775 201.03335968 295.7265625 198.24609375 C291.40184509 196.4983114 287.28587909 194.61049577 283.7578125 191.5234375 C281.778706 190.00127247 281.778706 190.00127247 279.2734375 190.41015625 C276.66159133 191.26741864 274.39502865 192.31701886 271.9765625 193.62109375 C257.02192177 201.30951231 241.81451849 202.04016099 225.7265625 197.24609375 C218.82475433 194.48699827 211.57829753 191.06817578 206.7265625 185.24609375 C205.2890625 181.87109375 205.2890625 181.87109375 204.7265625 179.24609375 C204.0665625 179.24609375 203.4065625 179.24609375 202.7265625 179.24609375 C197.34747807 168.77609013 197.01841467 156.10705979 199.4921875 144.72265625 C201.19359235 139.79398347 203.43905549 135.30068573 206.7265625 131.24609375 C207.3865625 131.24609375 208.0465625 131.24609375 208.7265625 131.24609375 C209.0565625 130.25609375 209.3865625 129.26609375 209.7265625 128.24609375 C210.2421875 127.79234375 210.7578125 127.33859375 211.2890625 126.87109375 C212.96803184 125.29225569 212.96803184 125.29225569 212.9765625 122.74609375 C212.80653817 120.11891932 212.80653817 120.11891932 211.7265625 117.24609375 C211.0665625 117.24609375 210.4065625 117.24609375 209.7265625 117.24609375 C206.60272957 112.24796106 204.9409459 108.01441491 203.7265625 102.24609375 C200.78325009 105.74407294 199.07861148 109.64863646 197.2890625 113.80859375 C196.58246313 115.42597 195.87540162 117.0431444 195.16796875 118.66015625 C194.78141113 119.54735352 194.39485352 120.43455078 193.99658203 121.34863281 C192.61730364 124.49536021 191.2188825 127.63307605 189.81640625 130.76953125 C185.2468258 140.9917657 180.69649111 151.21223769 176.4140625 161.55859375 C173.66860665 168.18499783 170.67062786 174.6063173 167.3671875 180.97265625 C166.14153327 183.41812827 165.01867091 185.84148905 163.93359375 188.34765625 C161.28533677 194.37057101 158.21458788 200.16955595 155.1640625 205.99609375 C154.58720703 207.10597656 154.01035156 208.21585938 153.41601562 209.359375 C147.74303068 220.23423196 147.74303068 220.23423196 145.7265625 223.24609375 C145.0665625 223.24609375 144.4065625 223.24609375 143.7265625 223.24609375 C142.7365625 226.21609375 142.7365625 226.21609375 141.7265625 229.24609375 C141.0665625 229.24609375 140.4065625 229.24609375 139.7265625 229.24609375 C139.448125 229.83777344 139.1696875 230.42945313 138.8828125 231.0390625 C135.03949766 238.37511954 128.61702626 242.9367113 121.7265625 247.24609375 C121.20191406 247.6004248 120.67726563 247.95475586 120.13671875 248.31982422 C116.41123553 249.75159927 112.75468319 249.55119247 108.796875 249.546875 C107.49494705 249.55330269 107.49494705 249.55330269 106.16671753 249.55986023 C104.33267081 249.56559632 102.49860134 249.5661091 100.66455078 249.56176758 C97.86841682 249.55861277 95.07334658 249.5820574 92.27734375 249.60742188 C90.49218883 249.60969556 88.70703108 249.61039804 86.921875 249.609375 C86.09043976 249.61858475 85.25900452 249.62779449 84.40237427 249.63728333 C79.41860402 249.59786213 76.09713152 248.90829559 71.7265625 246.24609375 C71.7265625 245.58609375 71.7265625 244.92609375 71.7265625 244.24609375 C70.4065625 243.91609375 69.0865625 243.58609375 67.7265625 243.24609375 C67.7265625 242.58609375 67.7265625 241.92609375 67.7265625 241.24609375 C67.1284375 240.98699219 66.5303125 240.72789062 65.9140625 240.4609375 C59.93234766 237.13894943 56.5484338 229.92529268 54.40625 223.67578125 C52.9461598 216.30819967 53.44781513 208.71807175 53.7265625 201.24609375 C52.09460938 201.04306641 52.09460938 201.04306641 50.4296875 200.8359375 C37.72071327 199.05621696 27.52438529 195.53502654 19.12890625 185.23828125 C10.61719443 173.14643437 11.26760697 157.65844286 11.21484375 143.40234375 C11.1979472 141.65399966 11.17979053 139.90566735 11.16044617 138.15734863 C11.11347914 133.61362392 11.0833284 129.06994693 11.05700684 124.52606201 C11.02692827 119.86623709 10.98049379 115.20657602 10.93554688 110.546875 C10.85012239 101.44670126 10.78251073 92.34649321 10.7265625 83.24609375 C10.71847565 84.41627548 10.71038879 85.58645721 10.70205688 86.792099 C10.62443953 97.8412156 10.53666117 108.89021143 10.43903542 119.93916988 C10.38917367 125.61900852 10.34284285 131.29882947 10.3046875 136.97875977 C10.26770673 142.46423652 10.22131234 147.94956155 10.16849899 153.43490791 C10.15002289 155.52354828 10.13489013 157.61222109 10.12321854 159.70091057 C10.10623961 162.63531781 10.07717711 165.56938266 10.04541016 168.50366211 C10.04324997 169.35962479 10.04108978 170.21558746 10.03886414 171.0974884 C9.92666188 179.25591365 9.10725485 186.78926293 3.7265625 193.24609375 C-3.76098929 199.41231287 -15.45398705 198.5842886 -24.5859375 198.55859375 C-25.71966797 198.57470703 -26.85339844 198.59082031 -28.02148438 198.60742188 C-36.13327965 198.61204398 -43.45574074 197.38127744 -51.2734375 195.24609375 C-51.2734375 194.58609375 -51.2734375 193.92609375 -51.2734375 193.24609375 C-51.88767798 192.99684112 -52.50191847 192.74758848 -53.1347723 192.49078274 C-57.00048516 190.24096344 -58.04090522 186.38827192 -59.2734375 182.24609375 C-59.79796029 178.44771477 -59.81141152 174.71651524 -59.77514648 170.88647461 C-59.78054947 169.78610367 -59.78595245 168.68573273 -59.79151917 167.55201721 C-59.80396083 163.93804495 -59.78754589 160.32487637 -59.76953125 156.7109375 C-59.76968633 154.18705707 -59.77117683 151.6631764 -59.77394104 149.13929749 C-59.77532296 143.85962241 -59.76323887 138.58015307 -59.73999023 133.30053711 C-59.71337177 127.21387522 -59.71164081 121.12759463 -59.7233786 115.04089445 C-59.73419109 109.16168462 -59.72783982 103.28261299 -59.71382332 97.40341377 C-59.70931682 94.91200726 -59.70896499 92.42058956 -59.71288872 89.92918205 C-59.7158082 86.44466255 -59.69925811 82.96075981 -59.67749023 79.47631836 C-59.68199188 78.45323578 -59.68649353 77.4301532 -59.69113159 76.37606812 C-59.62838313 70.31192535 -58.86495047 65.75732549 -56.2734375 60.24609375 C-55.5515625 59.56546875 -54.8296875 58.88484375 -54.0859375 58.18359375 C-51.87493037 56.22986879 -51.87493037 56.22986879 -52.0234375 52.49609375 C-52.1059375 51.42359375 -52.1884375 50.35109375 -52.2734375 49.24609375 C-52.9334375 49.24609375 -53.5934375 49.24609375 -54.2734375 49.24609375 C-60.15127297 38.6659899 -62.02029888 27.3334759 -59.015625 15.5 C-56.01751711 6.39521973 -50.24000739 -0.35286311 -41.90234375 -5.10546875 C-27.88014818 -11.67911187 -12.20262566 -9.41405313 0 0 Z M260.7265625 81.24609375 C259.39870264 86.36564592 260.07724029 88.9289843 262.5390625 93.55859375 C263.08175781 94.60660156 263.62445312 95.65460938 264.18359375 96.734375 C265.482203 99.34392506 265.482203 99.34392506 267.7265625 100.24609375 C269.39297256 99.25533875 269.39297256 99.25533875 270.7265625 97.24609375 C271.15234271 92.05157517 270.80667088 88.09967997 268.7265625 83.24609375 C266.82901106 80.89635557 266.82901106 80.89635557 263.6015625 81.12109375 C262.6528125 81.16234375 261.7040625 81.20359375 260.7265625 81.24609375 Z M80.7265625 83.24609375 C80.6801773 91.50428942 80.64466193 99.76243046 80.62293816 108.0207243 C80.61251069 111.85557858 80.5983705 115.69034358 80.57568359 119.52514648 C80.55391812 123.22745959 80.54198607 126.92968694 80.53680801 130.6320591 C80.5331189 132.04302126 80.52591496 133.45397885 80.51510239 134.8649044 C80.50053908 136.84437845 80.49974516 138.82393919 80.49951172 140.8034668 C80.4950705 141.92931686 80.49062927 143.05516693 80.48605347 144.21513367 C80.97342843 150.35716518 83.41560785 153.0456764 87.7265625 157.24609375 C88.64929949 160.01430471 88.86143365 161.70089704 88.8515625 164.55859375 C88.85414063 165.29722656 88.85671875 166.03585937 88.859375 166.796875 C88.70387385 169.66449921 88.23992458 172.42260232 87.7265625 175.24609375 C88.65597656 175.35566406 89.58539062 175.46523438 90.54296875 175.578125 C99.2601001 176.69617209 105.70724379 177.78662365 112.7265625 183.24609375 C113.3865625 183.24609375 114.0465625 183.24609375 114.7265625 183.24609375 C114.99726562 183.7978125 115.26796875 184.34953125 115.546875 184.91796875 C116.84443657 187.47871939 118.19058261 189.99580814 119.6015625 192.49609375 C120.09398437 193.388125 120.58640625 194.28015625 121.09375 195.19921875 C121.63257813 195.8746875 122.17140625 196.55015625 122.7265625 197.24609375 C124.0465625 197.24609375 125.3665625 197.24609375 126.7265625 197.24609375 C130.07436924 191.49205091 132.29601738 186.916277 130.7265625 180.24609375 C128.6996044 175.47647327 126.33041546 170.94217902 123.86865234 166.38525391 C122.01738184 162.91778231 120.2830501 159.39337965 118.5390625 155.87109375 C117.86912181 154.52833021 117.19856994 153.1858714 116.52734375 151.84375 C116.21619629 151.22129395 115.90504883 150.59883789 115.58447266 149.95751953 C114.85827327 148.50884061 114.12696521 147.06272431 113.39453125 145.6171875 C111.53722858 141.94606417 109.72545777 138.26045551 107.99609375 134.52734375 C104.03882407 125.9889287 99.88508071 117.60248234 95.45410156 109.29907227 C92.27837259 103.33997526 89.23896225 97.32437038 86.32617188 91.23217773 C84.77622282 88.05603213 83.29887026 85.6531 80.7265625 83.24609375 Z M268.7265625 142.24609375 C266.12321326 144.95791587 265.73199559 146.13743188 265.5390625 149.99609375 C265.6009375 151.06859375 265.6628125 152.14109375 265.7265625 153.24609375 C267.0465625 153.57609375 268.3665625 153.90609375 269.7265625 154.24609375 C270.84101748 152.0171838 270.89136536 150.71554269 270.9140625 148.24609375 C270.93533203 147.19421875 270.93533203 147.19421875 270.95703125 146.12109375 C270.89168573 144.00084437 270.89168573 144.00084437 268.7265625 142.24609375 Z " fill="#020202" transform="translate(510.2734375,123.75390625)"/>
<path d="M0 0 C3 1 3 1 4.69140625 4.1484375 C5.32377613 5.55342059 5.94678695 6.96263794 6.5625 8.375 C9.50858865 14.88788101 12.63389799 21.25630314 16 27.5625 C19.46741074 34.07239047 22.83469635 40.61797656 26.10375977 47.22949219 C28.29443398 51.64060071 30.5883958 55.9840473 32.9375 60.3125 C36.42388958 66.75023069 39.5530086 73.32834851 42.64868164 79.96118164 C44.92284261 84.80600626 47.30757713 89.55462894 49.875 94.25 C53.30873195 100.54141018 56.42618377 106.96332379 59.5 113.4375 C65.749919 126.59858135 72.24587483 139.59034892 79 152.5 C85.20034947 164.35117927 91.23061029 176.25303508 96.96337891 188.33764648 C101.27412884 197.42213074 105.70462147 206.40676236 110.43652344 215.27954102 C113.42332475 220.88068738 116.28682977 226.53223859 119.10009766 232.22216797 C121.33320744 236.71885442 123.67188192 241.14785598 126.0625 245.5625 C128.85923289 250.74451938 131.49648908 255.98234087 134 261.3125 C134.30301025 261.95324463 134.60602051 262.59398926 134.91821289 263.25415039 C137 267.75073722 137 267.75073722 137 270 C51.86 270 -33.28 270 -121 270 C-119.80558498 266.41675494 -118.7347025 263.21899403 -117.1875 259.84765625 C-116.66518799 258.70043091 -116.66518799 258.70043091 -116.13232422 257.5300293 C-115.75865723 256.71574463 -115.38499023 255.90145996 -115 255.0625 C-111.54624679 247.47033196 -108.18037611 239.84538726 -104.875 232.1875 C-101.58713988 224.58184767 -98.19670424 217.04371272 -94.65234375 209.5546875 C-92.53874179 205.0076951 -90.53801169 200.4153296 -88.5715332 195.80297852 C-87.04933104 192.26731592 -85.41675747 188.82228786 -83.6640625 185.39453125 C-80.46636524 179.06246345 -77.75102606 172.53543248 -75 166 C-71.89967708 158.63476585 -68.76360178 151.34823889 -65.12597656 144.23095703 C-63.42077353 140.8523479 -61.89374814 137.4029809 -60.375 133.9375 C-60.04508057 133.19072998 -59.71516113 132.44395996 -59.37524414 131.67456055 C-57.33642217 127.05512848 -55.31164166 122.42954117 -53.28515625 117.8046875 C-44.37958247 97.49359514 -44.37958247 97.49359514 -39.73046875 87.671875 C-34.91259691 77.48943313 -30.28399903 67.22127491 -25.6875 56.9375 C-24.82600563 55.01270009 -23.96420598 53.08803704 -23.10240173 51.16337585 C-22.25527876 49.2714253 -21.40839848 47.37936623 -20.56152344 45.48730469 C-13.76125347 30.30046038 -6.89623865 15.14348845 0 0 Z " fill="#FEFCFC" transform="translate(160,31)"/>
<path d="M0 0 C14.19 0 28.38 0 43 0 C43 59.4 43 118.8 43 180 C28.81 180 14.62 180 0 180 C-0.495 176.535 -0.495 176.535 -1 173 C-1.763125 173.7425 -2.52625 174.485 -3.3125 175.25 C-7.60672729 178.86619141 -12.72629069 180.31108838 -18 182 C-18.99 182.33 -19.98 182.66 -21 183 C-36.51573473 183.91579819 -47.63120884 181.40822051 -60.00390625 171.375 C-72.56049613 159.68922508 -78.49094011 142.52719136 -79.32421875 125.73828125 C-79.91504682 105.49186925 -75.24942383 91.10984831 -63 75 C-62.57847656 74.39800781 -62.15695312 73.79601562 -61.72265625 73.17578125 C-56.07995989 65.52500789 -45.19804397 60.56737969 -36 59 C-22.9702273 57.72625619 -12.04333333 61.82369658 -2 70 C-1.67 70.33 -1.34 70.66 -1 71 C-0.67 47.57 -0.34 24.14 0 0 Z M-14 96 C-21.62754581 117.83955424 -19.92607714 147.20594392 -13 169 C-11.68 169 -10.36 169 -9 169 C-7.88337965 165.65013896 -7.86625295 163.11879547 -7.85473633 159.58837891 C-7.85137772 158.94248306 -7.8480191 158.29658722 -7.84455872 157.63111877 C-7.83506132 155.4962471 -7.83310616 153.36145398 -7.83203125 151.2265625 C-7.82881762 149.74067147 -7.82545347 148.25478075 -7.82194519 146.76889038 C-7.81595681 143.65353665 -7.81410497 140.53821065 -7.81469727 137.42285156 C-7.81479882 133.43594955 -7.80115187 129.44922588 -7.78392506 125.4623661 C-7.77279165 122.39282417 -7.77077848 119.32332516 -7.77130699 116.25376511 C-7.7701287 114.7841976 -7.76571535 113.31462892 -7.75797462 111.84508133 C-7.74814836 109.7867316 -7.75106303 107.72876642 -7.75708008 105.67041016 C-7.75494255 103.91526596 -7.75494255 103.91526596 -7.75276184 102.12466431 C-7.99897491 99.01295534 -8.6734185 96.80600321 -10 94 C-11.46225016 93.90754997 -11.46225016 93.90754997 -14 96 Z " fill="#FDFDFD" transform="translate(386,118)"/>
<path d="M0 0 C33.99 0 67.98 0 103 0 C104.65 3.96 106.3 7.92 108 12 C109.14704672 14.52982126 110.31077671 17.05222914 111.5 19.5625 C112.10716387 20.85137742 112.71393299 22.14044087 113.3203125 23.4296875 C113.87460938 24.60789063 114.42890625 25.78609375 115 27 C117.39987497 32.20727589 119.74792608 37.43792417 122.09765625 42.66796875 C122.6690332 43.93930664 122.6690332 43.93930664 123.25195312 45.23632812 C124.04161229 46.99387267 124.83067595 48.75168489 125.61914062 50.50976562 C128.24990209 56.36618436 130.94055199 62.18858091 133.7109375 67.98046875 C135.38115319 71.89282247 136.65478135 75.96434406 138 80 C80.58 80 23.16 80 -36 80 C-29.5278169 63.81954225 -29.5278169 63.81954225 -26.18359375 57.35546875 C-24.07724839 53.16363294 -22.30859281 48.82656302 -20.5 44.5 C-19.76355896 42.73826649 -19.02397786 40.97784229 -18.28125 39.21875 C-17.80268555 38.0730957 -17.80268555 38.0730957 -17.31445312 36.90429688 C-15.33991102 32.54152702 -13.14161515 28.28323031 -11 24 C-7.37 16.08 -3.74 8.16 0 0 Z " fill="#CC1D1D" transform="translate(80,221)"/>
<path d="M0 0 C9.24514602 7.04564723 14.810276 13.87907036 18 25 C18.33 25.99 18.66 26.98 19 28 C19.10689182 29.95154475 19.15607796 31.9064483 19.17358398 33.86083984 C19.18707382 35.06574066 19.20056366 36.27064148 19.21446228 37.51205444 C19.23011986 39.46675156 19.23011986 39.46675156 19.24609375 41.4609375 C19.26160051 42.81231485 19.27781042 44.1636843 19.29469299 45.51504517 C19.36536002 51.25179866 19.42552476 56.98862699 19.47680664 62.72558594 C19.50867042 66.2369609 19.54996387 69.74812407 19.59700203 73.25932693 C19.62072763 75.2428291 19.6337434 77.22645004 19.64659119 79.21005249 C19.66323318 80.42125763 19.67987518 81.63246277 19.69702148 82.88037109 C19.71248268 84.47563126 19.71248268 84.47563126 19.72825623 86.1031189 C20.0080431 89.08574217 20.74642533 91.29429084 22 94 C22.99 94 23.98 94 25 94 C25.66 91.03 26.32 88.06 27 85 C27.99 85 28.98 85 30 85 C30.47882098 92.66113574 28.69838407 98.21797213 23.875 104.25 C18.27508789 110.30170969 10.51334838 113.03037938 2.375 113.375 C-4.82043211 113.30060115 -10.24165489 110.14537953 -15.8125 105.8125 C-18.88543231 101.86158703 -20.92844187 97.53979761 -23 93 C-27.82836628 97.03446235 -27.82836628 97.03446235 -32.25 101.5 C-41.46657854 109.87870776 -53.01730591 113.70643319 -65.296875 113.4140625 C-74.45085204 112.39051654 -83.95646695 109.26239685 -90 102 C-95.54373582 94.47739785 -96.70618827 88.30655261 -96 79 C-93.89801119 69.07737636 -88.93861998 63.47027223 -80.7265625 57.75 C-77.57080629 55.72452897 -74.51972609 54.29674119 -71 53 C-69.06015564 52.19311317 -67.1228973 51.37999606 -65.1875 50.5625 C-58.60503573 47.82523763 -51.98755272 45.18284008 -45.359375 42.55859375 C-44.05192896 42.03945112 -42.74463935 41.51991435 -41.4375 41 C-40.79361328 40.74404053 -40.14972656 40.48808105 -39.48632812 40.22436523 C-35.14564708 38.4877596 -30.86985439 36.64758891 -26.63671875 34.6640625 C-25 34 -25 34 -23 34 C-23.08172113 30.02004572 -23.19448734 26.04153048 -23.3125 22.0625 C-23.33505859 20.94552734 -23.35761719 19.82855469 -23.38085938 18.67773438 C-23.62565054 11.08920826 -24.06238497 3.69570923 -28.9375 -2.4375 C-33.43406554 -5.84398905 -36.68608196 -6.29546731 -42.375 -6.3125 C-43.66148437 -6.32925781 -44.94796875 -6.34601563 -46.2734375 -6.36328125 C-50.97515756 -5.90493747 -54.28802859 -4.68808343 -57.6796875 -1.34375 C-61.32087351 4.27271992 -62.21847231 9.38954784 -61 16 C-59.10619955 20.44287026 -57.02422025 23.3171865 -53 26 C-53.38984352 31.45780927 -55.15539941 34.15539941 -59 38 C-64.56069904 42.17052428 -71.35665102 41.84359987 -78 41 C-82.68273085 39.40713407 -85.89325204 36.75674844 -88.5 32.5625 C-91.78903881 24.92203374 -90.88410866 15.59097399 -88 8 C-87.34 8 -86.68 8 -86 8 C-85.74476563 7.4121875 -85.48953125 6.824375 -85.2265625 6.21875 C-80.29796895 -2.69666763 -70.08451063 -6.55842205 -60.875 -9.25 C-40.36547162 -14.43682467 -17.62660566 -11.86534065 0 0 Z M-33 78 C-35.60334924 80.71182212 -35.99456691 81.89133813 -36.1875 85.75 C-36.125625 86.8225 -36.06375 87.895 -36 89 C-34.68 89.33 -33.36 89.66 -32 90 C-30.88554502 87.77109005 -30.83519714 86.46944894 -30.8125 84 C-30.79123047 82.948125 -30.79123047 82.948125 -30.76953125 81.875 C-30.83487677 79.75475062 -30.83487677 79.75475062 -33 78 Z " fill="#FCFCFC" transform="translate(812,188)"/>
<path d="M0 0 C1.20720703 -0.01224609 2.41441406 -0.02449219 3.65820312 -0.03710938 C23.95837374 -0.07004637 23.95837374 -0.07004637 31.1875 5.1875 C37.07055183 11.85587725 40.54702173 19.84659198 44.13964844 27.88183594 C46.2355964 32.49370279 48.43935526 37.05515574 50.625 41.625 C51.49879728 43.45698386 52.37250338 45.28901121 53.24609375 47.12109375 C53.89314551 48.47660244 54.54024692 49.83208743 55.1875 51.1875 C58.48165301 49.75766529 58.48165301 49.75766529 60.4609375 46.7890625 C60.82445312 45.80679688 61.18796875 44.82453125 61.5625 43.8125 C63.24933474 39.47640334 65.05863846 35.32513346 67.1875 31.1875 C69.27075212 27.12755597 71.0780325 23.05793473 72.75 18.8125 C74.67829499 14.07828859 76.62743897 10.83884465 80.1875 7.1875 C80.868125 6.40375 81.54875 5.62 82.25 4.8125 C84.1875 3.1875 84.1875 3.1875 88.1875 3.1875 C87.54774626 7.50381318 86.01747578 10.9564112 84.125 14.875 C83.48156996 16.2232421 82.83970558 17.57223224 82.19921875 18.921875 C81.86583496 19.62376953 81.53245117 20.32566406 81.18896484 21.04882812 C79.54962447 24.54971102 77.99494879 28.08711124 76.4375 31.625 C73.33435671 38.65483356 70.15199899 45.64543358 66.9375 52.625 C62.33487688 62.62263333 57.84842097 72.66860691 53.39648438 82.73413086 C50.80522652 88.58271531 48.18227811 94.40940048 45.4375 100.1875 C43.27637387 104.74929877 41.27891145 109.34625292 39.36767578 114.01586914 C34.95590609 124.77837371 29.82290604 135.01579194 24.1875 145.1875 C23.630625 146.198125 23.07375 147.20875 22.5 148.25 C15.26078291 160.83994276 6.41876088 171.60655869 -7.5625 176.5 C-17.26538378 178.51417148 -27.41819958 178.12156142 -35.96484375 172.86328125 C-42.03811679 168.55431099 -47.299625 163.32935527 -49.8125 156.1875 C-50.71500702 147.32315028 -49.65855541 140.64688083 -44.125 133.5 C-38.70558319 127.58911647 -32.4794651 125.48484748 -24.55859375 125.0234375 C-18.74637776 125.37068227 -14.51305421 127.86484673 -10 131.375 C-5.5804943 137.05722162 -3.41931065 143.05747482 -2.8125 150.1875 C-3.35519531 150.42984375 -3.89789062 150.6721875 -4.45703125 150.921875 C-10.12968874 153.42874637 -10.12968874 153.42874637 -13.8125 158.1875 C-14.49793938 162.21445637 -14.16216143 163.68486169 -11.8125 167.0625 C-8.67044068 169.28812535 -6.66831591 169.91420033 -2.80859375 169.6953125 C0.67158564 168.80994397 2.61901785 166.63367348 5.1875 164.1875 C5.8475 164.1875 6.5075 164.1875 7.1875 164.1875 C7.45304688 163.61773437 7.71859375 163.04796875 7.9921875 162.4609375 C9.25362743 160.06172821 10.70926608 157.99737227 12.3125 155.8125 C16.35712717 150.09799564 19.79762209 144.10943958 23.17480469 137.98974609 C24.19287288 136.17793814 25.25117268 134.39534429 26.3203125 132.61328125 C26.97773437 131.48277344 27.63515625 130.35226562 28.3125 129.1875 C28.91320312 128.176875 29.51390625 127.16625 30.1328125 126.125 C31.53078281 122.23139382 30.91188748 120.92061544 29.1875 117.1875 C27.70939653 114.19318628 26.15031093 111.24992041 24.5625 108.3125 C23.6549472 106.61137149 22.74871616 104.90953721 21.84375 103.20703125 C21.39386719 102.36092285 20.94398438 101.51481445 20.48046875 100.64306641 C18.62519543 97.11958849 16.83436658 93.56600398 15.0625 90 C14.74071777 89.35240723 14.41893555 88.70481445 14.08740234 88.03759766 C13.44282373 86.7383841 12.79877693 85.43890656 12.15527344 84.13916016 C10.50817097 80.8175312 8.84703109 77.50293171 7.1875 74.1875 C6.52076826 72.85419921 5.85410154 71.5208659 5.1875 70.1875 C4.8575 69.5275 4.5275 68.8675 4.1875 68.1875 C-6.8125 46.1875 -6.8125 46.1875 -7.81274414 44.18676758 C-8.47833652 42.85574536 -9.14418869 41.52485302 -9.81030273 40.1940918 C-11.49557863 36.82642505 -13.17604001 33.45650141 -14.84765625 30.08203125 C-15.52306407 28.72116876 -16.19884206 27.36048994 -16.875 26 C-17.20177734 25.34241699 -17.52855469 24.68483398 -17.86523438 24.00732422 C-20.62820731 18.4827516 -23.56177472 13.06268878 -26.5625 7.6640625 C-27.8125 5.1875 -27.8125 5.1875 -27.8125 3.1875 C-18.7318372 -0.21774855 -9.57477133 0.00506334 0 0 Z " fill="#FCFCFC" transform="translate(620.8125,175.8125)"/>
<path d="M0 0 C1.26863388 -0.0049926 1.26863388 -0.0049926 2.56289673 -0.01008606 C4.34986834 -0.01514191 6.13684937 -0.0174948 7.92382812 -0.01733398 C10.64729499 -0.0195178 13.37035489 -0.03768028 16.09375 -0.05664062 C17.83333195 -0.05957542 19.57291582 -0.06155964 21.3125 -0.0625 C22.12206146 -0.06968552 22.93162292 -0.07687103 23.76571655 -0.08427429 C30.44882491 -0.05748222 35.85612759 0.97905182 40.97887325 5.66808891 C47.15086246 12.73366527 45.71931318 23.33023619 45.69311523 32.07373047 C45.6988232 33.7926579 45.70578911 35.51158155 45.71391296 37.23049927 C45.7318134 41.88349608 45.73068173 46.53630399 45.72497058 51.18932486 C45.72187389 55.08082145 45.7279766 58.97228201 45.73400933 62.86377347 C45.74804303 72.04837312 45.74650317 81.23287975 45.73510742 90.41748047 C45.72363014 99.87651142 45.73769797 109.3352587 45.7645039 118.79425228 C45.78669336 126.93040389 45.79329088 135.06646667 45.78742748 143.20264637 C45.78406413 148.05540265 45.78643143 152.90797717 45.80367851 157.76070786 C45.81919714 162.32614517 45.81513779 166.89116386 45.79637337 171.45658493 C45.79270091 173.126225 45.79575654 174.79589643 45.80625916 176.46550751 C45.90753405 193.904989 45.90753405 193.904989 41.2890625 201.16796875 C33.53195779 208.29297448 20.81673308 207.46150513 11.0390625 207.35546875 C9.894375 207.35482422 8.7496875 207.35417969 7.5703125 207.35351562 C2.33590524 207.32612628 -2.54979053 207.0846307 -7.7109375 206.16796875 C-14.43875163 205.78681459 -20.27326617 206.02207831 -26.7109375 208.16796875 C-44.54704388 211.66524451 -59.57184261 207.50539741 -74.83984375 198.53515625 C-75.45730469 198.08398438 -76.07476562 197.6328125 -76.7109375 197.16796875 C-76.7109375 196.50796875 -76.7109375 195.84796875 -76.7109375 195.16796875 C-77.5771875 194.82765625 -77.5771875 194.82765625 -78.4609375 194.48046875 C-81.29467645 192.82745436 -82.74237863 190.77154662 -84.7109375 188.16796875 C-85.2884375 187.61109375 -85.8659375 187.05421875 -86.4609375 186.48046875 C-87.7109375 185.16796875 -87.7109375 185.16796875 -87.7109375 183.16796875 C-88.3709375 183.16796875 -89.0309375 183.16796875 -89.7109375 183.16796875 C-90.97177513 180.75646377 -92.21940481 178.33939775 -93.4609375 175.91796875 C-93.80898438 175.25539063 -94.15703125 174.5928125 -94.515625 173.91015625 C-95.64754394 171.68824129 -96.69382845 169.44477254 -97.7109375 167.16796875 C-98.27445923 165.91657104 -98.27445923 165.91657104 -98.84936523 164.63989258 C-102.29648233 155.86296062 -102.35551904 147.29236071 -102.28735352 137.99682617 C-102.27351213 135.36963352 -102.30763222 132.74603327 -102.34570312 130.11914062 C-102.44383988 108.71688709 -94.50577454 90.57208374 -79.66015625 75.01953125 C-69.02154692 64.86714721 -55.78602297 59.23132321 -41.0859375 58.85546875 C-37.2620261 58.99056681 -33.63269118 59.47405031 -29.875 60.1875 C-28.90256348 60.37030518 -27.93012695 60.55311035 -26.92822266 60.74145508 C-26.19651855 60.88220459 -25.46481445 61.0229541 -24.7109375 61.16796875 C-24.69111816 59.9783252 -24.67129883 58.78868164 -24.65087891 57.56298828 C-24.57425142 53.10852486 -24.48562663 48.65436404 -24.39355469 44.20019531 C-24.35549927 42.28000912 -24.32060754 40.35975731 -24.2890625 38.43945312 C-24.24289821 35.66382544 -24.18499411 32.8886405 -24.125 30.11328125 C-24.11344879 29.26806915 -24.10189758 28.42285706 -24.08999634 27.55203247 C-23.88548913 19.11126432 -23.31362063 10.82115497 -17.7109375 4.16796875 C-17.0509375 4.16796875 -16.3909375 4.16796875 -15.7109375 4.16796875 C-15.7109375 27.59796875 -15.7109375 51.02796875 -15.7109375 75.16796875 C-18.6809375 73.18796875 -21.6509375 71.20796875 -24.7109375 69.16796875 C-35.28628269 63.31085449 -45.38067167 61.46717864 -57.3359375 64.29296875 C-62.15995937 65.72564095 -65.9110407 67.97130043 -69.93359375 70.9609375 C-71.7109375 72.16796875 -71.7109375 72.16796875 -73.7109375 72.16796875 C-73.97261719 72.75191406 -74.23429687 73.33585937 -74.50390625 73.9375 C-75.77580188 76.2878314 -77.19139903 77.91781387 -79.0234375 79.85546875 C-84.28661982 85.76423892 -87.70997662 92.16628699 -89.97314453 99.73706055 C-90.44991263 101.30793413 -90.95330097 102.87108161 -91.48828125 104.4230957 C-93.57658512 110.69515014 -94.18678748 116.32949203 -94.0859375 122.91796875 C-94.07651123 123.87880371 -94.06708496 124.83963867 -94.05737305 125.82958984 C-93.68319582 143.59033688 -88.41992628 159.89919192 -75.9921875 172.9765625 C-65.39716224 182.59704535 -54.65301021 185.78103848 -40.62109375 185.4140625 C-31.3223331 184.82882582 -25.1634399 181.53248557 -17.7109375 176.16796875 C-17.0509375 175.83796875 -16.3909375 175.50796875 -15.7109375 175.16796875 C-15.7109375 177.80796875 -15.7109375 180.44796875 -15.7109375 183.16796875 C-1.5209375 183.16796875 12.6690625 183.16796875 27.2890625 183.16796875 C27.2890625 123.76796875 27.2890625 64.36796875 27.2890625 3.16796875 C13.7590625 3.16796875 0.2290625 3.16796875 -13.7109375 3.16796875 C-12.7109375 1.16796875 -12.7109375 1.16796875 -10.8946228 0.55204773 C-7.28649157 -0.08257089 -3.65252932 0.00499579 0 0 Z " fill="#030202" transform="translate(401.7109375,114.83203125)"/>
<path d="M0 0 C1.32 0.33 2.64 0.66 4 1 C3.67 14.53 3.34 28.06 3 42 C6.96 42 10.92 42 15 42 C15 42.99 15 43.98 15 45 C11.04 45 7.08 45 3 45 C3.0843657 57.169831 3.17923459 69.3395304 3.28752708 81.50917339 C3.33748086 87.15998058 3.38381114 92.81076915 3.421875 98.46166992 C3.45873917 103.91471148 3.5051025 109.36759699 3.55806351 114.82050514 C3.57660138 116.90128658 3.59171158 118.98210147 3.60334396 121.06293297 C3.62021659 123.97660693 3.64925452 126.88992397 3.68115234 129.8034668 C3.68331253 130.66445984 3.68547272 131.52545288 3.68769836 132.41253662 C3.74795321 136.71867911 4.00220601 140.07560851 6 144 C7.65 144 9.3 144 11 144 C11.33 141.03 11.66 138.06 12 135 C12.99 135 13.98 135 15 135 C14.40861068 144.17673076 11.69195613 150.57751861 5 157 C-2.70645085 162.77612597 -9.4195914 163.84462041 -19 163 C-25.75886997 161.27388859 -30.83179166 157.52534615 -35 152 C-40.82078613 141.9984496 -39.50542588 130.0605514 -39.390625 118.92578125 C-39.38315365 116.78916455 -39.37746495 114.65254095 -39.37347412 112.51591492 C-39.35828821 106.92465908 -39.31906765 101.33382671 -39.2746582 95.74273682 C-39.23355284 90.024513 -39.21543064 84.30621998 -39.1953125 78.58789062 C-39.15256613 67.39174224 -39.08440099 56.1959065 -39 45 C-43.29 45 -47.58 45 -52 45 C-52 43.68 -52 42.36 -52 41 C-38.77951207 37.9313028 -38.77951207 37.9313028 -32.375 37.6875 C-25.8199025 37.19222597 -20.41624002 34.64699058 -15 31 C-10.54794352 25.76883364 -9.6202987 19.10542196 -8.125 12.5234375 C-6.95358231 8.85462237 -5.63748082 6.77141539 -3 4 C-2.34 3.67 -1.68 3.34 -1 3 C-0.67 2.01 -0.34 1.02 0 0 Z " fill="#FDFDFD" transform="translate(569,138)"/>
<path d="M0 0 C3.45591867 1.72795934 4.28808832 5.82714711 5.75 9.25 C6.47193906 10.90786458 7.1945995 12.5654152 7.91796875 14.22265625 C8.27294434 15.04008301 8.62791992 15.85750977 8.99365234 16.69970703 C11.72272399 22.93777424 14.62791933 29.09912895 17.5390625 35.25390625 C21.32375365 43.28068013 24.9405471 51.3706533 28.5 59.5 C32.87487114 69.48830377 37.36862659 79.39701939 42.06835938 89.23681641 C42.8233919 90.81803125 43.57705995 92.39989837 44.3293457 93.98242188 C45.05345006 95.50497133 45.7810075 97.02588464 46.51245117 98.54492188 C49 103.77562768 49 103.77562768 49 106 C17.32 106 -14.36 106 -47 106 C-45.87546397 99.25278382 -45.87546397 99.25278382 -44.1796875 95.6015625 C-43.81278809 94.80065186 -43.44588867 93.99974121 -43.06787109 93.17456055 C-42.67422363 92.33320557 -42.28057617 91.49185059 -41.875 90.625 C-41.05131663 88.83238334 -40.22840907 87.03941002 -39.40625 85.24609375 C-38.99761719 84.35905762 -38.58898437 83.47202148 -38.16796875 82.55810547 C-36.52280012 78.95482853 -34.94631347 75.32342522 -33.375 71.6875 C-30.41715115 64.88678983 -27.30593071 58.16360536 -24.15039062 51.45263672 C-21.62961529 46.07833514 -19.12735439 40.69539678 -16.625 35.3125 C-16.34432678 34.70912811 -16.06365356 34.10575623 -15.7744751 33.48410034 C-11.65050221 24.6149027 -7.58671224 15.72070576 -3.62744141 6.77661133 C-1.10350549 1.10350549 -1.10350549 1.10350549 0 0 Z " fill="#CC1E1E" transform="translate(131,110)"/>
<path d="M0 0 C14.19 0 28.38 0 43 0 C43 38.94 43 77.88 43 118 C28.81 118 14.62 118 0 118 C0 79.06 0 40.12 0 0 Z " fill="#FEFEFE" transform="translate(459,180)"/>
<path d="M0 0 C4.56101348 2.35083074 7.59402355 5.83717688 9.9609375 10.3515625 C10.63231245 13.18819786 10.6566677 15.90006093 10.6237793 18.80615234 C10.63414719 19.62177139 10.64451508 20.43739044 10.65519714 21.27772522 C10.68215675 23.95650507 10.67262833 26.63363459 10.66015625 29.3125 C10.6660704 31.18666029 10.67331931 33.06081679 10.68183899 34.93496704 C10.69370078 38.85723598 10.68704384 42.77893682 10.66772461 46.70117188 C10.6448641 51.71046818 10.67159575 56.71806517 10.71278667 61.72719383 C10.73845112 65.59650047 10.73576094 69.46540535 10.72489357 73.33476639 C10.72341349 75.18062506 10.73102002 77.02651554 10.74814415 78.87229538 C10.88300981 96.22753017 10.88300981 96.22753017 5.63117981 102.80239868 C1.49975508 106.63432994 -2.07041437 108.38492942 -7.7265625 108.2890625 C-12.16905969 107.03175198 -15.09393171 105.74312604 -17.734375 101.85546875 C-25.19004776 86.51633872 -26.22609615 71.82847913 -26.22436523 55.0402832 C-26.22654205 52.68617389 -26.24472945 50.33254192 -26.26367188 47.97851562 C-26.32639913 31.36864357 -24.84820399 16.82372352 -16.0390625 2.3515625 C-15.3790625 2.3515625 -14.7190625 2.3515625 -14.0390625 2.3515625 C-14.0390625 1.6915625 -14.0390625 1.0315625 -14.0390625 0.3515625 C-9.89317395 -1.72138178 -4.35452764 -1.38477316 0 0 Z M-4.0390625 27.3515625 C-11.66660831 49.19111674 -9.96513964 78.55750642 -3.0390625 100.3515625 C-1.7190625 100.3515625 -0.3990625 100.3515625 0.9609375 100.3515625 C2.07755785 97.00170146 2.09468455 94.47035797 2.10620117 90.93994141 C2.10955978 90.29404556 2.1129184 89.64814972 2.11637878 88.98268127 C2.12587618 86.8478096 2.12783134 84.71301648 2.12890625 82.578125 C2.13211988 81.09223397 2.13548403 79.60634325 2.13899231 78.12045288 C2.14498069 75.00509915 2.14683253 71.88977315 2.14624023 68.77441406 C2.14613868 64.78751205 2.15978563 60.80078838 2.17701244 56.8139286 C2.18814585 53.74438667 2.19015902 50.67488766 2.18963051 47.60532761 C2.1908088 46.1357601 2.19522215 44.66619142 2.20296288 43.19664383 C2.21278914 41.1382941 2.20987447 39.08032892 2.20385742 37.02197266 C2.20599495 35.26682846 2.20599495 35.26682846 2.20817566 33.47622681 C1.96196259 30.36451784 1.287519 28.15756571 -0.0390625 25.3515625 C-1.50131266 25.25911247 -1.50131266 25.25911247 -4.0390625 27.3515625 Z " fill="#020202" transform="translate(376.0390625,186.6484375)"/>
<path d="M0 0 C1 3 1 3 -0.40625 6.37109375 C-1.09251426 7.73249912 -1.79124974 9.08766435 -2.5 10.4375 C-3.05204102 11.50895264 -3.05204102 11.50895264 -3.61523438 12.60205078 C-12.18426523 29.08747976 -21.31164306 45.85907507 -39.75 52.3125 C-49.45288378 54.32667148 -59.60569958 53.93406142 -68.15234375 48.67578125 C-74.22561679 44.36681099 -79.487125 39.14185527 -82 32 C-82.90250702 23.13565028 -81.84605541 16.45938083 -76.3125 9.3125 C-70.89308319 3.40161647 -64.6669651 1.29734748 -56.74609375 0.8359375 C-50.93387776 1.18318227 -46.70055421 3.67734673 -42.1875 7.1875 C-37.7679943 12.86972162 -35.60681065 18.86997482 -35 26 C-35.81404297 26.36351562 -35.81404297 26.36351562 -36.64453125 26.734375 C-42.31718874 29.24124637 -42.31718874 29.24124637 -46 34 C-46.68543938 38.02695637 -46.34966143 39.49736169 -44 42.875 C-40.85794068 45.10062535 -38.85581591 45.72670033 -34.99609375 45.5078125 C-31.51591436 44.62244397 -29.56848215 42.44617348 -27 40 C-26.34 40 -25.68 40 -25 40 C-24.73445312 39.43023437 -24.46890625 38.86046875 -24.1953125 38.2734375 C-22.93387257 35.87422821 -21.47823392 33.80987227 -19.875 31.625 C-13.71859402 22.92907655 -8.54481066 13.57063407 -4.10546875 3.890625 C-3 2 -3 2 0 0 Z " fill="#FBFBFB" transform="translate(653,300)"/>
<path d="M0 0 C4.9416829 3.25701828 8.12307941 7.36923823 10 13 C10.81093735 20.98619311 11.02848111 27.6603738 5.80078125 34.08984375 C5.20652344 34.72019531 4.61226563 35.35054687 4 36 C3.47792969 36.62003906 2.95585937 37.24007812 2.41796875 37.87890625 C-2.0643543 42.23981197 -6.64366746 42.55288962 -12.625 42.625 C-13.71808472 42.6415564 -13.71808472 42.6415564 -14.83325195 42.65844727 C-20.85843495 42.49853524 -24.50907969 40.47495287 -28.828125 36.18359375 C-29.29734375 35.60738281 -29.7665625 35.03117187 -30.25 34.4375 C-30.72953125 33.85871094 -31.2090625 33.27992188 -31.703125 32.68359375 C-36.22513433 26.81315393 -35.75274492 21.19716321 -35 14 C-33.15111264 8.12481661 -30.43626921 3.16062163 -25 0 C-16.6019269 -4.22672251 -8.39382661 -4.28895088 0 0 Z " fill="#FDFDFD" transform="translate(493,121)"/>
<path d="M0 0 C0.12683815 7.02901938 0.21436744 14.0577434 0.2746582 21.08764648 C0.29979315 23.47870919 0.33390633 25.86969514 0.37719727 28.26049805 C0.43789061 31.69859764 0.46622072 35.13568096 0.48828125 38.57421875 C0.51408768 39.64210129 0.5398941 40.70998383 0.56648254 41.81022644 C0.56929267 49.25611187 0.56929267 49.25611187 -2.39453125 53.12890625 C-8.58022099 57.57110323 -14.34091832 60.00446973 -22 59 C-26.87187363 56.56406319 -29.3994978 53.74305433 -32 49 C-32.58317273 46.06562295 -32.62066571 43.23490173 -32.5625 40.25 C-32.55009277 39.44941162 -32.53768555 38.64882324 -32.52490234 37.82397461 C-32.112276 26.95116022 -27.18914995 20.39735864 -19.83203125 12.62109375 C-6.195231 0 -6.195231 0 0 0 Z M-10 41 C-12.60334924 43.71182212 -12.99456691 44.89133813 -13.1875 48.75 C-13.125625 49.8225 -13.06375 50.895 -13 52 C-11.68 52.33 -10.36 52.66 -9 53 C-7.88554502 50.77109005 -7.83519714 49.46944894 -7.8125 47 C-7.79123047 45.948125 -7.79123047 45.948125 -7.76953125 44.875 C-7.83487677 42.75475062 -7.83487677 42.75475062 -10 41 Z " fill="#070707" transform="translate(789,225)"/>
<path d="M0 0 C1.20720703 -0.01224609 2.41441406 -0.02449219 3.65820312 -0.03710938 C23.95837374 -0.07004637 23.95837374 -0.07004637 31.1875 5.1875 C37.07055183 11.85587725 40.54702173 19.84659198 44.13964844 27.88183594 C46.2355964 32.49370279 48.43935526 37.05515574 50.625 41.625 C51.49879728 43.45698386 52.37250338 45.28901121 53.24609375 47.12109375 C53.89314551 48.47660244 54.54024692 49.83208743 55.1875 51.1875 C58.48165301 49.75766529 58.48165301 49.75766529 60.4609375 46.7890625 C60.82445312 45.80679688 61.18796875 44.82453125 61.5625 43.8125 C63.24933474 39.47640334 65.05863846 35.32513346 67.1875 31.1875 C69.27075212 27.12755597 71.0780325 23.05793473 72.75 18.8125 C74.66538939 14.11332925 76.5483116 10.73092029 80.1875 7.1875 C81.1775 6.8575 82.1675 6.5275 83.1875 6.1875 C80.12070308 15.63881051 76.09307918 24.54457474 71.58984375 33.390625 C70.0348678 36.49191408 68.61976981 39.63290536 67.234375 42.8125 C66.00527132 45.60091433 64.72237011 48.36183847 63.4375 51.125 C59.58846351 59.4349711 55.89115973 67.81196493 52.1875 76.1875 C48.96982068 74.57866034 48.31934788 71.18643948 47 68 C44.22673109 61.47769584 41.21764796 55.13604599 38.00390625 48.81640625 C35.98055289 44.81279662 34.08326041 40.75270614 32.1875 36.6875 C29.18008557 30.2417949 26.05910102 23.86772725 22.828125 17.53125 C20.83543143 13.46995073 19.02479875 9.32142219 17.1875 5.1875 C2.9975 4.8575 -11.1925 4.5275 -25.8125 4.1875 C-18.43060728 -1.34891954 -8.92595697 0.00472023 0 0 Z " fill="#060606" transform="translate(620.8125,175.8125)"/>
<path d="M0 0 C0.38449864 10.95821128 -2.96068992 20.2811543 -10.37890625 28.40234375 C-15.90595405 33.84948242 -21.48445758 36.21173589 -29 38 C-29.75410156 38.18949219 -30.50820313 38.37898438 -31.28515625 38.57421875 C-34.96336657 39.15108915 -38.60118913 39.10561621 -42.3125 39.0625 C-43.05306641 39.05798828 -43.79363281 39.05347656 -44.55664062 39.04882812 C-46.37112899 39.03712175 -48.18557534 39.01918898 -50 39 C-44.73532015 35.49021343 -38.91349285 35.01129348 -32.6875 34.75 C-24.8973683 34.11362304 -17.60882148 31.06536524 -12.5 25.0625 C-10.3117265 20.19359145 -9.30412126 14.7136766 -8.125 9.5234375 C-6.95358231 5.85462237 -5.63748082 3.77141539 -3 1 C-1 0 -1 0 0 0 Z " fill="#0E0E0E" transform="translate(569,141)"/>
<path d="M0 0 C0 0.66 0 1.32 0 2 C-6.93 3.485 -6.93 3.485 -14 5 C-14 4.34 -14 3.68 -14 3 C-9.07015675 0.96006486 -5.42039575 -0.40652968 0 0 Z " fill="#161616" transform="translate(760,176)"/>
<path d="M0 0 C0 0.66 0 1.32 0 2 C-4.66666667 4.33333333 -9.33333333 6.66666667 -14 9 C-12.53824146 5.11305116 -10.69873837 3.99184772 -7 2.25 C-6.113125 1.82203125 -5.22625 1.3940625 -4.3125 0.953125 C-2 0 -2 0 0 0 Z " fill="#090909" transform="translate(746,179)"/>
<path d="M0 0 C0 0.66 0 1.32 0 2 C-1.010625 2.4125 -2.02125 2.825 -3.0625 3.25 C-6.89604911 4.88512605 -10.4152988 6.87844214 -14 9 C-12.56759722 5.37640811 -10.97298034 4.06444274 -7.5625 2.25 C-6.78003906 1.82203125 -5.99757813 1.3940625 -5.19140625 0.953125 C-3 0 -3 0 0 0 Z " fill="#111111" transform="translate(345,177)"/>
<path d="M0 0 C0.99 0 1.98 0 3 0 C2.67 2.97 2.34 5.94 2 9 C1.01 8.34 0.02 7.68 -1 7 C-0.67 4.69 -0.34 2.38 0 0 Z " fill="#DBDBDB" transform="translate(581,273)"/>
<path d="M0 0 C0.99 0 1.98 0 3 0 C3 1.98 3 3.96 3 6 C2.01 6.33 1.02 6.66 0 7 C0 4.69 0 2.38 0 0 Z " fill="#DFDFDF" transform="translate(839,273)"/>
</svg>
